<svg width="124" height="40" viewBox="0 0 124 40" fill="none" xmlns="http://www.w3.org/2000/svg">
<g clip-path="url(#clip0_2639_22297)">
<path d="M-0.00195312 1.51416H3.87996V21.2858H14.6046V24.9704H-0.00195312V1.51416Z" fill="white"/>
<path d="M17.6309 8.45527H21.2496V24.97H17.6309V8.45527ZM19.4403 4.86939C18.7823 4.86939 18.2231 4.6391 17.7296 4.17853C17.2361 3.68506 17.0059 3.12579 17.0059 2.43494C17.0059 1.77698 17.2361 1.21771 17.7296 0.757141C18.2231 0.230774 18.7823 0.000488281 19.4403 0.000488281C20.1311 0.000488281 20.6904 0.230774 21.1509 0.724244C21.6115 1.18482 21.8418 1.74408 21.8418 2.40204C21.8418 3.0929 21.6115 3.68506 21.1509 4.14563C20.7233 4.6391 20.1311 4.86939 19.4403 4.86939Z" fill="white"/>
<path d="M33.6211 21.9437C34.3449 21.9437 35.0028 21.8121 35.595 21.549C36.22 21.2858 36.7464 20.9239 37.174 20.4633C37.6017 19.9699 37.9636 19.4106 38.1939 18.7855C38.4241 18.1605 38.5557 17.4696 38.5557 16.7459C38.5557 16.0221 38.4241 15.3312 38.1939 14.7062C37.9636 14.0811 37.6017 13.5219 37.174 13.0613C36.7464 12.5678 36.22 12.2059 35.595 11.9428C35.0028 11.6796 34.3449 11.548 33.6211 11.548C32.8974 11.548 32.2065 11.6796 31.6144 11.9428C30.9893 12.2059 30.4629 12.5678 30.0353 13.0613C29.6076 13.5219 29.2457 14.0811 29.0155 14.7062C28.7852 15.3312 28.6536 16.0221 28.6536 16.7459C28.6536 17.4696 28.7852 18.1605 29.0155 18.7855C29.2457 19.4106 29.6076 19.9699 30.0353 20.4633C30.4629 20.9239 30.9893 21.2858 31.6144 21.549C32.2394 21.8121 32.8974 21.9437 33.6211 21.9437ZM33.6211 25.2993C32.4039 25.2993 31.2525 25.069 30.1998 24.6414C29.1799 24.2137 28.2588 23.5886 27.4693 22.832C26.7126 22.0424 26.0876 21.1213 25.6599 20.1014C25.2322 19.0487 25.002 17.9302 25.002 16.7459C25.002 15.5615 25.2322 14.443 25.6599 13.4232C26.0876 12.3704 26.7126 11.4493 27.4693 10.6926C28.2588 9.90308 29.1799 9.27802 30.1998 8.85034C31.2525 8.42267 32.4039 8.19238 33.6211 8.19238C34.8383 8.19238 35.9568 8.42267 37.0096 8.85034C38.0623 9.27802 38.9834 9.90308 39.74 10.6926C40.5296 11.4493 41.1546 12.3704 41.5823 13.4232C42.01 14.443 42.2403 15.5615 42.2403 16.7459C42.2403 17.9302 42.01 19.0487 41.5823 20.1014C41.1546 21.1213 40.5296 22.0424 39.74 22.832C38.9834 23.5886 38.0623 24.2137 37.0096 24.6414C35.9568 25.1019 34.8383 25.2993 33.6211 25.2993Z" fill="white"/>
<path d="M54.2456 22.0091C54.9693 22.0091 55.6273 21.8775 56.2194 21.6143C56.8445 21.3182 57.3379 20.9564 57.7656 20.4958C58.1933 20.0023 58.5551 19.4431 58.7854 18.818C59.0157 18.1929 59.1473 17.4692 59.1473 16.7454C59.1473 16.0217 59.0157 15.2979 58.7854 14.6729C58.5551 14.0478 58.1933 13.4885 57.7656 13.028C57.3379 12.5345 56.8445 12.1726 56.2194 11.9094C55.6273 11.6133 54.9693 11.4818 54.2456 11.4818C53.5218 11.4818 52.831 11.6133 52.2388 11.9094C51.6138 12.1726 51.0874 12.5345 50.6597 13.028C50.2321 13.4885 49.9031 14.0478 49.6728 14.6729C49.4425 15.2979 49.3109 16.0217 49.3109 16.7454C49.3109 17.4692 49.4425 18.1929 49.6728 18.818C49.9031 19.4431 50.2321 20.0023 50.6597 20.4958C51.0874 20.9564 51.6138 21.3182 52.2388 21.6143C52.831 21.8775 53.4889 22.0091 54.2456 22.0091ZM54.9035 25.2989C53.7192 25.2989 52.6336 25.0357 51.7125 24.5422C50.7584 24.0159 50.0676 23.4237 49.607 22.7658V24.9699H45.9883V0.197754H49.607V10.6593C50.0676 10.0013 50.7584 9.40918 51.7125 8.91571C52.6665 8.38935 53.7192 8.12616 54.9035 8.12616C56.022 8.12616 57.0747 8.35645 58.0288 8.81702C59.0157 9.24469 59.871 9.86975 60.5619 10.6593C61.2527 11.416 61.812 12.3371 62.2068 13.3569C62.6344 14.3768 62.8318 15.4953 62.8318 16.6796C62.8318 17.864 62.6344 18.9825 62.2068 20.0023C61.812 21.0222 61.2527 21.9433 60.5619 22.7329C59.871 23.4895 59.0157 24.1146 58.0288 24.5751C57.0747 25.1015 56.022 25.2989 54.9035 25.2989Z" fill="white"/>
<path d="M73.9827 22.0095C74.7065 22.0095 75.3644 21.8779 75.9566 21.6147C76.5816 21.3187 77.0751 20.9568 77.5028 20.4962C77.9304 20.0028 78.2923 19.4435 78.5226 18.8184C78.7529 18.1934 78.8845 17.4696 78.8845 16.7459C78.8845 15.9892 78.7529 15.2983 78.5226 14.6733C78.2923 14.0482 77.9304 13.489 77.5028 13.0284C77.0751 12.5349 76.5816 12.173 75.9566 11.9099C75.3644 11.6138 74.7065 11.4822 73.9827 11.4822C73.259 11.4822 72.5681 11.6138 71.976 11.9099C71.3838 12.173 70.8575 12.5349 70.4298 13.0284C70.0021 13.489 69.6732 14.0482 69.4429 14.6733C69.2126 15.2983 69.081 16.0221 69.081 16.7459C69.081 17.5025 69.2126 18.1934 69.4429 18.8184C69.6732 19.4435 70.0021 20.0028 70.4298 20.4962C70.8575 20.9568 71.3838 21.3187 71.976 21.6147C72.601 21.8779 73.259 22.0095 73.9827 22.0095ZM73.3248 25.2993C72.2063 25.2993 71.1536 25.069 70.1666 24.6414C69.2126 24.1808 68.3573 23.5557 67.6664 22.7991C66.9756 22.0095 66.3834 21.0884 65.9886 20.0685C65.5939 19.0487 65.3965 17.9302 65.3965 16.7459C65.3965 15.5615 65.5939 14.443 65.9886 13.4232C66.4163 12.4033 66.9756 11.4822 67.6664 10.7255C68.3573 9.93597 69.2126 9.31091 70.1666 8.88324C71.1536 8.42267 72.2063 8.19238 73.3248 8.19238C74.5091 8.19238 75.5618 8.45557 76.483 8.98193C77.437 9.4754 78.1278 10.0676 78.5884 10.7255V8.52136H82.2071V25.0361H78.5884V22.832C78.1278 23.4899 77.437 24.0821 76.483 24.6085C75.5618 25.069 74.5091 25.2993 73.3248 25.2993Z" fill="white"/>
<path d="M87.1738 8.45544H90.7926V10.6925C91.286 9.87006 91.9769 9.2121 92.8651 8.78442C93.7533 8.35675 94.7403 8.12646 95.793 8.12646C96.747 8.12646 97.6023 8.29095 98.359 8.61993C99.1485 8.94891 99.8394 9.40948 100.366 10.0016C100.925 10.5938 101.32 11.3176 101.616 12.1729C101.912 12.9954 102.076 13.9494 102.076 15.0021V24.9373H98.4577V15.6272C98.4577 14.3113 98.1616 13.2914 97.5366 12.5677C96.9115 11.811 96.0891 11.4492 95.0363 11.4492C93.8191 11.4492 92.7993 11.9097 92.0098 12.8309C91.1873 13.7191 90.7926 15.0679 90.7926 16.8773V25.0031H87.1738V8.45544Z" fill="white"/>
<path d="M110.435 17.0086V24.9699H106.783V0.197754H110.435V14.7387L116.751 8.45514H121.324L113.955 15.8243L123.002 24.9699H118.33L110.435 17.0086Z" fill="white"/>
<path d="M81.1877 37.7002C80.8258 37.7002 80.464 37.6015 80.135 37.437C79.806 37.2725 79.5428 37.0422 79.3784 36.7791V37.6015H78.6875V30.3311H79.3784V33.5551C79.5428 33.2919 79.806 33.0616 80.135 32.8971C80.464 32.7326 80.8258 32.6339 81.1877 32.6339C81.8786 32.6339 82.4707 32.8642 82.9313 33.3577C83.3919 33.8511 83.655 34.4433 83.655 35.1342C83.655 35.825 83.4247 36.4172 82.9313 36.9106C82.4378 37.4041 81.8786 37.7002 81.1877 37.7002ZM79.806 36.5159C80.135 36.8778 80.5956 37.0751 81.1219 37.0751C81.6483 37.0751 82.0759 36.8778 82.4378 36.5159C82.7668 36.154 82.9313 35.6934 82.9313 35.1671C82.9313 34.6407 82.7668 34.1801 82.4378 33.8182C82.1088 33.4564 81.6483 33.259 81.1219 33.259C80.5956 33.259 80.1679 33.4564 79.806 33.8182C79.477 34.1801 79.3126 34.6407 79.3126 35.1671C79.3126 35.6934 79.4441 36.154 79.806 36.5159Z" fill="white"/>
<path d="M85.9591 39.6413H85.2025L86.2881 37.3713L84.084 32.7656H84.8406L86.65 36.6147L88.4594 32.7656H89.2489L85.9591 39.6413Z" fill="white"/>
<path d="M98.8851 29.7397C95.8914 29.7397 93.457 31.9768 93.457 34.7402C93.457 37.5037 95.8914 39.7407 98.8851 39.7407C101.879 39.7407 104.313 37.5037 104.313 34.7402C104.313 31.9768 101.879 29.7397 98.8851 29.7397ZM98.8851 37.8984C97.306 37.8984 96.0559 36.4838 96.0559 34.7073C96.0559 32.9637 97.3389 31.5162 98.8851 31.5162C100.464 31.5162 101.747 32.9308 101.747 34.7073C101.747 36.4838 100.464 37.8984 98.8851 37.8984Z" fill="white"/>
<path d="M122.963 36.7142C122.93 36.3523 122.865 35.9904 122.7 35.6614C122.536 35.3325 122.272 35.0364 121.943 34.8061C121.779 34.6745 121.582 34.5758 121.351 34.4771C121.713 34.3126 122.009 34.0494 122.207 33.7863C122.503 33.3586 122.667 32.8322 122.634 32.2401C122.601 31.5163 122.338 30.957 121.878 30.5294C121.417 30.1017 120.693 29.9043 119.772 29.9043H114.377V39.4776H119.114C119.937 39.4776 120.66 39.3789 121.22 39.1815C121.812 38.9512 122.272 38.6552 122.568 38.2275C122.865 37.7669 122.996 37.2734 122.963 36.7142ZM118.456 31.3847C119.641 31.3847 120.035 31.615 120.035 32.5032C120.035 33.2599 119.575 33.5889 118.489 33.5889H117.864L117.206 35.3654H118.588C119.772 35.3654 120.397 35.7601 120.397 36.6813C120.397 37.6353 119.739 37.9643 118.555 37.9643H116.976V31.3847H118.456Z" fill="white"/>
<path d="M113.064 37.142C112.472 37.6354 111.683 37.8986 110.827 37.8986C108.919 37.8986 107.406 36.484 107.406 34.7075C107.406 32.931 108.952 31.5164 110.827 31.5164C111.683 31.5164 112.472 31.8125 113.064 32.2731V30.3321C112.275 29.9373 111.354 29.707 110.367 29.707C107.307 29.707 104.84 31.9441 104.84 34.7075C104.84 37.4709 107.307 39.708 110.367 39.708C111.354 39.708 112.275 39.4777 113.064 39.083V37.142Z" fill="white"/>
</g>
<defs>
<clipPath id="clip0_2639_22297">
<rect width="123.004" height="39.7078" fill="white"/>
</clipPath>
</defs>
</svg>
